<svg width="24" height="24" viewBox="0 0 24 24" fill="none" xmlns="http://www.w3.org/2000/svg">
<path d="M4.3245 5.135L7.4285 14.448L4.9615 20H10H16H20V18H8.039L9.15 15.5H19.2205L22.3875 6H6.7205L5.7205 3H2V5H4.1665L4.3245 5.135Z" fill="white"/>
<path d="M10 22C10.5523 22 11 21.5523 11 21C11 20.4477 10.5523 20 10 20C9.44772 20 9 20.4477 9 21C9 21.5523 9.44772 22 10 22Z" fill="white"/>
<path d="M16 22C16.5523 22 17 21.5523 17 21C17 20.4477 16.5523 20 16 20C15.4477 20 15 20.4477 15 21C15 21.5523 15.4477 22 16 22Z" fill="white"/>
</svg>
