<svg width="24.000000" height="24.000000" viewBox="0 0 24 24" fill="none" xmlns="http://www.w3.org/2000/svg" xmlns:xlink="http://www.w3.org/1999/xlink">
	<desc>
			Created with Pixso.
	</desc>
	<defs/>
	<path id="Vector" d="M21 4L16 4C16 2.89 15.1 2 14 2L10 2C8.89 2 8 2.89 8 4L3 4L3 6L21 6L21 4Z" fill="#000000" fill-opacity="1.000000" fill-rule="nonzero"/>
	<path id="Vector" d="M11 18L9 18L9 8L5 8L5 20.14C5 21.16 5.89 22 7 22L17 22C18.1 22 19 21.16 19 20.14L19 8L15 8L15 18L13 18L13 8L11 8L11 18Z" fill="#000000" fill-opacity="1.000000" fill-rule="nonzero"/>
</svg>
